<?xml version="1.0" encoding="utf-8"?>
<!-- Generator: Adobe Illustrator 18.0.0, SVG Export Plug-In . SVG Version: 6.00 Build 0)  -->
<!DOCTYPE svg PUBLIC "-//W3C//DTD SVG 1.1 Tiny//EN" "http://www.w3.org/Graphics/SVG/1.1/DTD/svg11-tiny.dtd">
<svg version="1.1" baseProfile="tiny" xmlns="http://www.w3.org/2000/svg" xmlns:xlink="http://www.w3.org/1999/xlink" x="0px"
	 y="0px" width="2100px" height="500px" viewBox="0 0 2100 500" xml:space="preserve">
<g id="Khronos">
	<g>
		<path d="M137.1,260.5H97.5V58h39.6V260.5z M137.7,159.9L199,58h44.2l-65,100.5l65,101.9H199L137.7,159.9z"/>
		<path d="M378.6,178.3v82.2H339V58h39.6v82.2h65.3V58h39.6v202.5h-39.6v-82.2H378.6z"/>
		<path d="M639.6,260.5H600V58h48.1c15.3,0,26.7,0.5,34.2,1.6c7.5,1.1,13.9,2.8,19.1,5.2c11.5,5.4,20.3,12.9,26.3,22.5
			c6,9.7,9.1,21,9.1,34c0,15.7-4.3,29-12.9,39.9c-8.6,10.9-20.3,17.8-35.1,20.8l50.6,78.5h-47.2l-52.5-93.9V260.5z M639.6,156.7h8.8
			c16.1,0,28.3-2.9,36.7-8.7c8.3-5.8,12.5-14.3,12.5-25.4c0-10.8-3.5-18.7-10.5-23.8c-7-5.1-17.9-7.7-32.7-7.7h-14.8V156.7z"/>
		<path d="M1298.7,260.5h-38.9V58h37.6l83.8,129.3V58h38.9v202.5h-36.8l-84.6-133.2V260.5z"/>
		<path d="M1528.1,158.8c0-11.1,1.5-21.6,4.5-31.5c3-9.9,7.4-19.1,13.2-27.7c10-14.6,22.6-25.8,37.7-33.7
			c15.1-7.9,31.6-11.9,49.5-11.9c13.5,0,26.4,2.6,38.9,7.8c12.5,5.2,23.6,12.7,33.5,22.4c10.1,10.1,17.8,21.5,23.1,34.1
			c5.3,12.6,7.9,25.9,7.9,39.8c0,14.5-2.5,28-7.5,40.7c-5,12.7-12.3,24-21.9,33.8c-9.7,10.3-21.1,18.2-34,23.7
			c-12.9,5.5-26.5,8.3-40.6,8.3c-15.1,0-29-2.7-41.8-8.1c-12.7-5.4-24-13.3-33.8-23.9c-9.5-10-16.6-21.2-21.5-33.7
			C1530.5,186.4,1528.1,173,1528.1,158.8z M1569.5,157.4c0,8.7,1.4,16.8,4.3,24.3c2.9,7.5,7.1,14.4,12.8,20.6
			c6.2,6.8,13.3,12,21.2,15.6c7.9,3.7,16.1,5.5,24.5,5.5c17.7,0,32.6-6.3,44.6-18.9c12-12.6,18-28.3,18-47.1
			c0-17.2-6.1-31.9-18.2-44.1c-12.1-12.2-26.7-18.3-43.7-18.3c-17.7,0-32.8,6.1-45.1,18.2C1575.7,125.4,1569.5,140.1,1569.5,157.4z"
			/>
		<path d="M1832,197.8l36.3-0.1v2.9c0,8.5,2.2,15.3,6.6,20.4c4.4,5.1,10.3,7.7,17.6,7.7c7.9,0,14.1-2.4,18.7-7.1
			c4.6-4.8,6.9-11.2,6.9-19.4c0-13-9.3-22.4-27.9-28c-2.4-0.7-4.3-1.3-5.7-1.8c-15.7-4.9-27.4-11.9-35-20.9
			c-7.6-9-11.4-20.5-11.4-34.3c0-19,5.3-34.3,15.8-45.8c10.5-11.5,24.5-17.3,42.1-17.3c16.4,0,29.5,5.1,39.2,15.3
			c9.7,10.2,15.2,24.6,16.3,43h-35.9v-1.7c0-6.4-2-11.6-5.9-15.5c-3.9-3.9-9-5.9-15.3-5.9c-6.5,0-11.6,2-15.4,6.1
			c-3.8,4.1-5.6,9.6-5.6,16.6c0,3,0.4,5.6,1.2,7.8c0.8,2.3,2,4.3,3.7,6.1c3.8,4.2,12,8,24.5,11.6c5.6,1.5,9.8,2.7,12.8,3.8
			c13.9,4.7,24.2,11.5,30.8,20.3c6.6,8.8,9.9,20.1,9.9,33.8c0,20.9-5.8,37.6-17.4,50.3c-11.6,12.7-27,19-46.1,19
			c-18.1,0-32.6-6.1-43.8-18.3C1838,234,1832.3,217.8,1832,197.8z"/>
	</g>
	<g>
		<path stroke="#000000" stroke-width="0.9773" d="M109.8,476.2c-2.4,0-4.5-0.2-6.2-0.7c-1.7-0.5-3.1-1.2-4.2-2
			c-1.1-0.9-1.9-1.9-2.3-3.1c-0.5-1.2-0.7-2.5-0.7-4v-21.2c0-1.4,0.2-2.8,0.7-4c0.5-1.2,1.3-2.3,2.3-3.1c1.1-0.9,2.5-1.6,4.2-2
			c1.7-0.5,3.8-0.7,6.2-0.7h34.6v6.1h-34.6c-3.6,0-5.4,1.3-5.4,3.8v21.3c0,2.5,1.8,3.8,5.4,3.8h34.6v6.1H109.8z"/>
		<path stroke="#000000" stroke-width="0.9773" d="M174.7,476.2c-2.4,0-4.5-0.2-6.2-0.7c-1.7-0.5-3.1-1.2-4.2-2
			c-1.1-0.9-1.9-1.9-2.3-3.1c-0.5-1.2-0.7-2.5-0.7-4v-21.2c0-1.4,0.2-2.8,0.7-4c0.5-1.2,1.3-2.3,2.3-3.1c1.1-0.9,2.5-1.6,4.2-2
			c1.7-0.5,3.8-0.7,6.2-0.7H203c2.4,0,4.5,0.2,6.2,0.7c1.7,0.5,3.1,1.2,4.2,2c1.1,0.9,1.9,1.9,2.3,3.1c0.5,1.2,0.7,2.6,0.7,4v21.2
			c0,1.5-0.2,2.8-0.7,4c-0.5,1.2-1.3,2.2-2.3,3.1c-1.1,0.9-2.5,1.6-4.2,2c-1.7,0.5-3.8,0.7-6.2,0.7H174.7z M208.4,445
			c0-2.5-1.8-3.8-5.4-3.8h-28.4c-3.6,0-5.4,1.3-5.4,3.8v21.3c0,2.5,1.8,3.8,5.4,3.8H203c3.6,0,5.4-1.3,5.4-3.8V445z"/>
		<path stroke="#000000" stroke-width="0.9773" d="M287.3,476.2l-45.8-31.9v31.9h-7.1v-41h7.1l42.7,30.5v-30.5h7.1v41H287.3z"/>
		<path stroke="#000000" stroke-width="0.9773" d="M362.4,476.2l-45.8-31.9v31.9h-7.1v-41h7.1l42.7,30.5v-30.5h7.1v41H362.4z"/>
		<path stroke="#000000" stroke-width="0.9773" d="M384.4,476.2v-41h44.2v6.1h-36.1v10.3h34.2v6.1h-34.2v12.6h36.1v6.1H384.4z"/>
		<path stroke="#000000" stroke-width="0.9773" d="M458.9,476.2c-2.4,0-4.5-0.2-6.2-0.7c-1.7-0.5-3.1-1.2-4.2-2
			c-1.1-0.9-1.9-1.9-2.3-3.1c-0.5-1.2-0.7-2.5-0.7-4v-21.2c0-1.4,0.2-2.8,0.7-4c0.5-1.2,1.3-2.3,2.3-3.1c1.1-0.9,2.5-1.6,4.2-2
			c1.7-0.5,3.8-0.7,6.2-0.7h34.6v6.1h-34.6c-3.6,0-5.4,1.3-5.4,3.8v21.3c0,2.5,1.8,3.8,5.4,3.8h34.6v6.1H458.9z"/>
		<path stroke="#000000" stroke-width="0.9773" d="M530.5,476.2v-35H508v-6.1h52.5v6.1h-21.9v35H530.5z"/>
		<path stroke="#000000" stroke-width="0.9773" d="M576.5,476.2v-41h8.1v41H576.5z"/>
		<path stroke="#000000" stroke-width="0.9773" d="M656.1,476.2l-45.8-31.9v31.9h-7.1v-41h7.1l42.7,30.5v-30.5h7.1v41H656.1z"/>
		<path stroke="#000000" stroke-width="0.9773" d="M693.2,476.2c-10.2,0-15.3-3-15.3-8.9V444c0-5.9,5.1-8.9,15.3-8.9h33.6v6.1h-33.6
			c-4.8,0-7.2,0.9-7.2,2.8v23.3c0,1.9,2.4,2.8,7.2,2.8h19c4.8,0,7.2-0.9,7.2-2.7v-13.6h8.1v13.6c0,5.8-5.1,8.7-15.3,8.7H693.2z"/>
		<path stroke="#000000" stroke-width="0.9773" d="M793.6,476.2v-6.1H831c3.6,0,5.4-1.3,5.4-3.8v-5.2c0-2.5-1.8-3.8-5.4-3.8h-25.3
			c-2.4,0-4.5-0.2-6.2-0.7c-1.7-0.5-3.1-1.2-4.2-2c-1.1-0.9-1.9-1.9-2.3-3.1c-0.5-1.2-0.7-2.5-0.7-4v-2.4c0-1.4,0.2-2.8,0.7-4
			c0.5-1.2,1.3-2.3,2.3-3.1c1.1-0.9,2.5-1.6,4.2-2c1.7-0.5,3.8-0.7,6.2-0.7h36.4v6.1h-36.4c-3.6,0-5.4,1.3-5.4,3.8v2.5
			c0,2.5,1.8,3.8,5.4,3.8H831c2.4,0,4.5,0.2,6.2,0.7c1.7,0.5,3.1,1.2,4.2,2c1.1,0.9,1.9,1.9,2.3,3.1c0.5,1.2,0.7,2.6,0.7,4v5.1
			c0,1.5-0.2,2.8-0.7,4c-0.5,1.2-1.3,2.2-2.3,3.1c-1.1,0.9-2.5,1.6-4.2,2c-1.7,0.5-3.8,0.7-6.2,0.7H793.6z"/>
		<path stroke="#000000" stroke-width="0.9773" d="M874.5,476.2c-2.4,0-4.5-0.2-6.2-0.7c-1.7-0.5-3.1-1.2-4.2-2
			c-1.1-0.9-1.9-1.9-2.3-3.1c-0.5-1.2-0.7-2.5-0.7-4v-21.2c0-1.4,0.2-2.8,0.7-4c0.5-1.2,1.3-2.3,2.3-3.1c1.1-0.9,2.5-1.6,4.2-2
			c1.7-0.5,3.8-0.7,6.2-0.7h28.4c2.4,0,4.5,0.2,6.2,0.7c1.7,0.5,3.1,1.2,4.2,2c1.1,0.9,1.9,1.9,2.3,3.1c0.5,1.2,0.7,2.6,0.7,4v21.2
			c0,1.5-0.2,2.8-0.7,4c-0.5,1.2-1.3,2.2-2.3,3.1c-1.1,0.9-2.5,1.6-4.2,2c-1.7,0.5-3.8,0.7-6.2,0.7H874.5z M908.2,445
			c0-2.5-1.8-3.8-5.4-3.8h-28.4c-3.6,0-5.4,1.3-5.4,3.8v21.3c0,2.5,1.8,3.8,5.4,3.8h28.4c3.6,0,5.4-1.3,5.4-3.8V445z"/>
		<path stroke="#000000" stroke-width="0.9773" d="M942.3,459.3v16.9h-8.1v-41h44.2v6.1h-36.1v12H976v6.1H942.3z"/>
		<path stroke="#000000" stroke-width="0.9773" d="M1015.1,476.2v-35h-22.5v-6.1h52.5v6.1h-21.9v35H1015.1z"/>
		<path stroke="#000000" stroke-width="0.9773" d="M1112.6,476.2l-14.9-31.5l-15.2,31.5h-5.9l-19.8-41h7.8l14.9,31.5l15.1-31.5h6
			l14.9,31.5l15.1-31.5h7.9l-19.8,41H1112.6z"/>
		<path stroke="#000000" stroke-width="0.9773" d="M1192.7,476.2l-7.9-11.7h-29.6l-7.9,11.7h-8.7l28.5-41h5.9l28.4,41H1192.7z
			 M1170.2,442.7l-10.7,15.8h21.4L1170.2,442.7z"/>
		<path stroke="#000000" stroke-width="0.9773" d="M1256.8,476.2l-10.1-18.3h-22.6v18.3h-8.1v-41h36.5c2.4,0,4.5,0.2,6.2,0.7
			c1.7,0.5,3.1,1.2,4.2,2c1.1,0.9,1.9,1.9,2.3,3.1c0.5,1.2,0.7,2.6,0.7,4v2.9c0,2.6-0.8,4.8-2.4,6.6c-1.6,1.8-4.4,2.8-8.2,3.2
			l10.1,18.4H1256.8z M1257.8,445c0-2.5-1.8-3.8-5.4-3.8h-28.4v10.6h28.4c3.6,0,5.4-1.3,5.4-3.8V445z"/>
		<path stroke="#000000" stroke-width="0.9773" d="M1282.7,476.2v-41h44.2v6.1h-36.1v10.3h34.2v6.1h-34.2v12.6h36.1v6.1H1282.7z"/>
		<path stroke="#000000" stroke-width="0.9773" d="M1411.9,476.2v-35h-22.5v-6.1h52.5v6.1H1420v35H1411.9z"/>
		<path stroke="#000000" stroke-width="0.9773" d="M1469,476.2c-2.4,0-4.5-0.2-6.2-0.7c-1.7-0.5-3.1-1.2-4.2-2
			c-1.1-0.9-1.9-1.9-2.3-3.1c-0.5-1.2-0.7-2.5-0.7-4v-21.2c0-1.4,0.2-2.8,0.7-4c0.5-1.2,1.3-2.3,2.3-3.1c1.1-0.9,2.5-1.6,4.2-2
			c1.7-0.5,3.8-0.7,6.2-0.7h28.4c2.4,0,4.5,0.2,6.2,0.7c1.7,0.5,3.1,1.2,4.2,2c1.1,0.9,1.9,1.9,2.3,3.1c0.5,1.2,0.7,2.6,0.7,4v21.2
			c0,1.5-0.2,2.8-0.7,4c-0.5,1.2-1.3,2.2-2.3,3.1c-1.1,0.9-2.5,1.6-4.2,2c-1.7,0.5-3.8,0.7-6.2,0.7H1469z M1502.7,445
			c0-2.5-1.8-3.8-5.4-3.8H1469c-3.6,0-5.4,1.3-5.4,3.8v21.3c0,2.5,1.8,3.8,5.4,3.8h28.4c3.6,0,5.4-1.3,5.4-3.8V445z"/>
		<path stroke="#000000" stroke-width="0.9773" d="M1577.2,476.2v-6.1h37.3c3.6,0,5.4-1.3,5.4-3.8v-5.2c0-2.5-1.8-3.8-5.4-3.8h-25.3
			c-2.4,0-4.5-0.2-6.2-0.7c-1.7-0.5-3.1-1.2-4.2-2c-1.1-0.9-1.9-1.9-2.3-3.1c-0.5-1.2-0.7-2.5-0.7-4v-2.4c0-1.4,0.2-2.8,0.7-4
			c0.5-1.2,1.3-2.3,2.3-3.1c1.1-0.9,2.5-1.6,4.2-2c1.7-0.5,3.8-0.7,6.2-0.7h36.4v6.1h-36.4c-3.6,0-5.4,1.3-5.4,3.8v2.5
			c0,2.5,1.8,3.8,5.4,3.8h25.3c2.4,0,4.5,0.2,6.2,0.7c1.7,0.5,3.1,1.2,4.2,2c1.1,0.9,1.9,1.9,2.3,3.1c0.5,1.2,0.7,2.6,0.7,4v5.1
			c0,1.5-0.2,2.8-0.7,4c-0.5,1.2-1.3,2.2-2.3,3.1c-1.1,0.9-2.5,1.6-4.2,2c-1.7,0.5-3.8,0.7-6.2,0.7H1577.2z"/>
		<path stroke="#000000" stroke-width="0.9773" d="M1645.2,476.2v-41h8.1v41H1645.2z"/>
		<path stroke="#000000" stroke-width="0.9773" d="M1671.8,476.2v-41h8.1v35h34.8v6.1H1671.8z"/>
		<path stroke="#000000" stroke-width="0.9773" d="M1731,476.2v-41h8.1v41H1731z"/>
		<path stroke="#000000" stroke-width="0.9773" d="M1770.8,476.2c-2.4,0-4.5-0.2-6.2-0.7c-1.7-0.5-3.1-1.2-4.2-2
			c-1.1-0.9-1.9-1.9-2.3-3.1c-0.5-1.2-0.7-2.5-0.7-4v-21.2c0-1.4,0.2-2.8,0.7-4c0.5-1.2,1.3-2.3,2.3-3.1c1.1-0.9,2.5-1.6,4.2-2
			c1.7-0.5,3.8-0.7,6.2-0.7h34.6v6.1h-34.6c-3.6,0-5.4,1.3-5.4,3.8v21.3c0,2.5,1.8,3.8,5.4,3.8h34.6v6.1H1770.8z"/>
		<path stroke="#000000" stroke-width="0.9773" d="M1835.6,476.2c-2.4,0-4.5-0.2-6.2-0.7c-1.7-0.5-3.1-1.2-4.2-2
			c-1.1-0.9-1.9-1.9-2.3-3.1c-0.5-1.2-0.7-2.5-0.7-4v-21.2c0-1.4,0.2-2.8,0.7-4c0.5-1.2,1.3-2.3,2.3-3.1c1.1-0.9,2.5-1.6,4.2-2
			c1.7-0.5,3.8-0.7,6.2-0.7h28.4c2.4,0,4.5,0.2,6.2,0.7c1.7,0.5,3.1,1.2,4.2,2c1.1,0.9,1.9,1.9,2.3,3.1c0.5,1.2,0.7,2.6,0.7,4v21.2
			c0,1.5-0.2,2.8-0.7,4c-0.5,1.2-1.3,2.2-2.3,3.1c-1.1,0.9-2.5,1.6-4.2,2c-1.7,0.5-3.8,0.7-6.2,0.7H1835.6z M1869.3,445
			c0-2.5-1.8-3.8-5.4-3.8h-28.4c-3.6,0-5.4,1.3-5.4,3.8v21.3c0,2.5,1.8,3.8,5.4,3.8h28.4c3.6,0,5.4-1.3,5.4-3.8V445z"/>
		<path stroke="#000000" stroke-width="0.9773" d="M1948.3,476.2l-45.8-31.9v31.9h-7.1v-41h7.1l42.7,30.5v-30.5h7.1v41H1948.3z"/>
	</g>
	<g>
		<path d="M1442.3,301.4l-5.4,6c-2.6-2.3-5.3-4-8-5c-2.7-1.1-5.5-1.6-8.6-1.6c-6.2,0-11.4,2.2-15.5,6.5c-4.2,4.3-6.2,9.6-6.2,15.9
			c0,6.3,2.1,11.6,6.2,15.9c4.2,4.3,9.3,6.5,15.5,6.5c2.7,0,5.3-0.4,7.8-1.3c2.4-0.9,4.7-2.2,6.8-3.9v-13.4h-12V319h20.6v26
			c-3.8,2.9-7.6,5.1-11.4,6.6c-3.8,1.4-7.7,2.2-11.8,2.2c-8.8,0-16.1-2.9-21.9-8.7c-5.8-5.8-8.7-13.1-8.7-21.9
			c0-3.9,0.7-7.6,2.1-11.2c1.4-3.6,3.4-6.8,5.9-9.6c2.9-3.2,6.3-5.6,10.1-7.3c3.8-1.7,8-2.5,12.5-2.5c4.3,0,8.4,0.8,12.3,2.3
			C1436.5,296.5,1439.8,298.6,1442.3,301.4z"/>
		<path d="M1526.8,294.1h11.1c3.1,0,5.7,0.2,7.7,0.5c2,0.4,3.8,0.9,5.3,1.7c2.5,1.3,4.5,3.3,5.9,5.9c1.5,2.6,2.2,5.6,2.2,8.8
			c0,3.8-1.2,7.1-3.7,9.9c-2.5,2.8-5.8,4.5-9.9,5.2l17.7,24l-8.2,3.5l-19.5-28.3v26.7l-8.7,0.7V294.1z M1535.5,301.8v18.4h3.1
			c3.7,0,6.6-0.8,8.7-2.5c2-1.7,3.1-4,3.1-7c0-3-1-5.2-2.9-6.7c-1.9-1.5-4.8-2.3-8.6-2.3H1535.5z"/>
		<path d="M1670.1,292.6c3.8,0,7.4,0.6,10.8,1.9c3.4,1.2,6.5,3,9.1,5.4c3.4,3.1,6.1,6.6,7.9,10.6c1.8,4,2.7,8.3,2.7,12.7
			c0,3.8-0.7,7.6-2.1,11.2c-1.4,3.6-3.4,6.8-6,9.7c-2.9,3.2-6.2,5.6-10.1,7.3c-3.8,1.7-8,2.5-12.5,2.5c-3.8,0-7.4-0.6-10.9-1.9
			c-3.4-1.2-6.4-3-9-5.4c-3.5-3.1-6.1-6.6-7.9-10.7c-1.8-4-2.8-8.3-2.8-12.7c0-4.4,0.9-8.7,2.8-12.7c1.8-4,4.5-7.6,7.9-10.6
			c2.6-2.3,5.6-4.1,9-5.4C1662.6,293.2,1666.2,292.6,1670.1,292.6z M1670.1,300.7c-6.2,0-11.4,2.2-15.5,6.5
			c-4.2,4.3-6.2,9.6-6.2,15.9c0,6.3,2.1,11.6,6.2,15.9c4.2,4.3,9.3,6.4,15.6,6.4c6.2,0,11.3-2.2,15.5-6.5c4.2-4.3,6.3-9.6,6.3-15.9
			c0-6.3-2.1-11.6-6.2-15.9C1681.5,302.9,1676.3,300.7,1670.1,300.7z"/>
		<path d="M1791.2,293.3v33c0,7,0.9,11.9,2.7,14.8c1.8,2.8,4.8,4.2,9.1,4.2c4.3,0,7.4-1.3,9.3-4c1.9-2.7,2.9-7.1,2.9-13.3v-33.8
			l8.4-0.8v36.6c0,4.7-0.3,8.4-1,10.9c-0.7,2.5-1.9,4.7-3.5,6.6c-1.6,1.9-3.9,3.4-6.7,4.6c-2.8,1.1-5.8,1.7-8.9,1.7
			c-7,0-12.3-2-15.7-5.9c-3.5-3.9-5.2-9.9-5.2-17.9v-35.7L1791.2,293.3z"/>
		<path d="M1908.5,294.1h15.4c6.6,0,11.7,1.5,15.2,4.5c3.5,3,5.2,7.4,5.2,13.1c0,5.4-2,9.7-6,12.9c-4,3.2-9.5,4.7-16.5,4.7
			c-0.9,0-2.4-0.1-4.4-0.2c-0.1,0-0.2,0-0.2,0v23l-8.7,0.7V294.1z M1917.2,301.8v19.4c0.8,0.1,1.6,0.2,2.4,0.3
			c0.9,0.1,1.8,0.1,2.9,0.1c4.2,0,7.4-0.8,9.6-2.5c2.2-1.7,3.3-4.1,3.3-7.4c0-3.4-1-5.9-3-7.5c-2-1.6-5.2-2.4-9.5-2.4H1917.2z"/>
	</g>
	<path fill="#CC3333" d="M985.5,247.3c-69.5-2.5-164.4-34.2-184.1-80c-17-41.7-0.1-90.2,80.1-124.7c47.6-19.8,119.6-25.4,175.1-20.3
		c78.7,7.2,153.7,47.9,153.8,48v57.1l-0.1,3.8c0,0-24.4-22.1-54.9-39.9c-28.7-16.8-55-28.6-107.2-33.4c-12.2-1.1-33-3.9-66.7,0.8
		c-13.6,1.9-32.8,3.3-76,22.3c-14,6.7-26.9,13.8-36.9,22.1c-5.2,4.3-12.3,10.4-17.3,15.6c-12.3,15.4-18.8,27-15.7,48
		c3.6,15.8,10.6,25.7,30.9,40.8c8.8,6.6,9.8,6.5,13.7,8.5c36.3,18.8,65.3,25.7,106.7,30.9"/>
	<path fill="#CC3333" d="M989.3,69.3c69.7-0.3,168.5,27.6,194.2,72.6c22.5,40.9,12.1,90-63.3,127.5
		c-44.8,21.7-115.9,30.1-171.9,27.2c-79.5-4.1-159.7-41.8-159.8-41.9l-7.6-56.9l-0.5-3.8c0,0,27.3,21.1,60.1,37.7
		c30.9,15.6,58.7,26.4,111.4,29.1c12.3,0.7,33.4,2.5,66.4-3.4c13.3-2.4,32.3-4.6,72.8-25.2c13.1-7.2,25-14.8,33.8-23.5
		c4.6-4.5,10.9-10.9,15.2-16.2c10.2-15.9,15.2-27.7,9.3-48.5c-5.7-15.6-14-25.2-36.2-39.5c-9.6-6.2-10.6-6.1-14.8-8
		c-38.7-17.3-68.5-23-110.6-26.6"/>
</g>
<g id="Isolation_Mode">
	<g id="OpenGL">
		<g>
			<path d="M2012,73.9c0,3.7-0.9,7.1-2.8,10.3c-1.8,3.2-4.4,5.7-7.5,7.5c-3.2,1.8-6.6,2.8-10.3,2.8c-3.7,0-7.1-0.9-10.3-2.8
				c-3.2-1.8-5.7-4.3-7.5-7.5c-1.8-3.2-2.8-6.6-2.8-10.3s0.9-7.1,2.8-10.3c1.8-3.2,4.4-5.7,7.5-7.5c3.2-1.8,6.6-2.8,10.3-2.8
				c3.7,0,7.1,0.9,10.3,2.8c3.2,1.8,5.7,4.3,7.5,7.5C2011.1,66.8,2012,70.3,2012,73.9z M2008,73.9c0-4.6-1.6-8.5-4.9-11.7
				c-3.2-3.2-7.2-4.9-11.7-4.9c-4.6,0-8.5,1.6-11.7,4.9c-3.2,3.2-4.9,7.2-4.9,11.7s1.6,8.5,4.9,11.7c3.2,3.2,7.2,4.9,11.7,4.9
				c4.6,0,8.5-1.6,11.7-4.9C2006.4,82.4,2008,78.5,2008,73.9z M1982.1,62.9h9.8c2.8,0,4.8,0.6,6.1,1.7c1.2,1.1,1.9,2.6,1.9,4.5
				c0,1.5-0.5,2.8-1.4,3.8c-1,1.1-2.5,1.9-4.5,2.3c0.8,0.3,1.5,0.7,1.9,1c0.6,0.5,1.1,1.2,1.8,2.2c0,0.1,1.2,2.2,3.6,6.4h-6.5
				c-2.1-4.2-3.5-6.7-4.2-7.5c-0.7-0.8-1.4-1.2-2.2-1.2c-0.2,0-0.4,0-0.7,0.1v8.7h-5.5L1982.1,62.9L1982.1,62.9z M1987.5,72.3h2.4
				c1.6,0,2.7-0.3,3.3-0.8c0.6-0.5,1-1.2,1-2c0-0.8-0.3-1.5-0.9-2s-1.7-0.8-3.2-0.8h-2.6L1987.5,72.3L1987.5,72.3z"/>
		</g>
	</g>
</g>
</svg>
