<?xml version="1.0" encoding="utf-8"?>
<!-- Generator: Adobe Illustrator 22.0.1, SVG Export Plug-In . SVG Version: 6.00 Build 0)  -->
<svg version="1.2" baseProfile="tiny" id="Layer_4" xmlns="http://www.w3.org/2000/svg" xmlns:xlink="http://www.w3.org/1999/xlink"
	 x="0px" y="0px" width="1400px" height="500px" viewBox="0 0 1400 500" xml:space="preserve">
<g id="Layer_3">
</g>
<g id="TM_2_">
	<path fill="#669D74" d="M1351,217.5h-7.3v19.1h-6.4v-19.1h-7.3V212h21.1L1351,217.5L1351,217.5z"/>
	<path fill="#669D74" d="M1353.8,212h9.5l4.2,16.4h0.1l4.2-16.4h9.5v24.6h-6v-18.7h-0.1l-5.2,18.7h-4.9l-5.2-18.7h-0.1v18.7h-6V212
		L1353.8,212z"/>
</g>
<path fill="#669D74" d="M19,66.9C246.3-26.3,702,53.2,906.5,194.5C632.6,96.8,106.3,50.7,19.5,186C19.5,97.3,19,66.9,19,66.9z"/>
<path fill="#669D74" d="M1382,436.8c-226.8,93.2-644.5,2-779-96.2c244.3,84.7,691.8,112.4,778.5-22.8
	C1381.6,406.4,1382,436.8,1382,436.8z"/>
<g>
	<path fill="#669D74" d="M112.5,237.8c1.4,0.1,2.7,0.2,3.9,0.2c1.2,0,2.4,0,3.7,0c3.7,0,7.2-0.5,10.5-1.5c3.3-1,6.3-2.5,8.8-4.5
		c2.5-2,4.5-4.4,6-7.3c1.5-2.9,2.2-6.4,2.2-10.3c0-7.6-2.4-13.4-7.3-17.3c-4.9-3.9-11-5.9-18.4-5.9c-4.8,0-8.8,0.9-12.2,2.5
		c-3.4,1.7-6.2,4-8.5,6.8s-3.9,6.2-5,10c-1.1,3.8-1.6,7.8-1.6,12H77.2c0.3-6.9,1.4-13.3,3.4-19c2-5.7,4.8-10.6,8.5-14.7
		c3.7-4.1,8.3-7.3,13.8-9.6c5.5-2.3,11.9-3.5,19.1-3.5c6.3,0,12.1,0.8,17.4,2.3c5.4,1.6,10,3.9,14,7c3.9,3.1,7,7.1,9.3,12
		c2.2,4.9,3.4,10.7,3.4,17.3c0,6.4-1.9,12.1-5.8,17.2c-3.9,5.1-8.6,8.9-14.2,11.5v0.4c8.8,1.9,15.4,6.1,19.7,12.4
		c4.3,6.4,6.4,13.9,6.4,22.6c0,7.2-1.3,13.6-4,19.1s-6.2,10.1-10.7,13.8c-4.5,3.7-9.8,6.5-15.8,8.4c-6.1,1.9-12.5,2.9-19.3,2.9
		c-7.3,0-14-1.1-20-3.2c-6-2.1-11.1-5.2-15.3-9.2c-4.2-4-7.4-8.9-9.7-14.8c-2.2-5.8-3.3-12.5-3.2-20h17.3c0.3,9.4,3,17,8.2,23
		c5.2,5.9,12.7,8.9,22.6,8.9c4.2,0,8.2-0.6,12-1.9c3.8-1.3,7.1-3.1,10-5.5c2.9-2.4,5.1-5.3,6.8-8.8c1.7-3.5,2.6-7.4,2.6-11.7
		c0-4.5-0.8-8.5-2.4-11.9c-1.6-3.5-3.8-6.4-6.5-8.8c-2.7-2.4-6-4.1-9.8-5.3c-3.8-1.2-7.8-1.7-12-1.7c-3.7,0-7.1,0.2-10.4,0.6V237.8z
		"/>
	<path fill="#669D74" d="M186.6,174.8h50c22.4,0,39.7,5.7,51.8,17.1c12.1,11.4,18.2,28.8,18.2,52.2c0,12.2-1.4,23.1-4.1,32.5
		c-2.7,9.5-6.9,17.4-12.6,23.9c-5.7,6.5-13,11.4-21.8,14.8c-8.8,3.4-19.3,5.1-31.4,5.1h-50V174.8z M206,304.1h32.2
		c2.2,0,4.9-0.2,8.2-0.5c3.3-0.3,6.7-1.2,10.4-2.4c3.7-1.3,7.3-3.2,10.9-5.6c3.6-2.4,6.8-5.8,9.7-10c2.9-4.2,5.2-9.5,7-15.8
		c1.8-6.3,2.8-14,2.8-22.9c0-8.7-0.9-16.5-2.5-23.4c-1.7-6.9-4.5-12.7-8.4-17.4c-3.9-4.8-8.9-8.4-15-11c-6.1-2.6-13.7-3.9-22.6-3.9
		H206V304.1z"/>
	<path fill="#669D74" d="M426.5,223.8c-0.5-3.7-1.8-7-3.7-10.1c-1.9-3.1-4.3-5.7-7.1-8.1c-2.9-2.3-6.1-4.1-9.7-5.4
		c-3.6-1.3-7.4-1.9-11.3-1.9c-7.2,0-13.3,1.4-18.4,4.2c-5,2.8-9.1,6.5-12.2,11.2c-3.1,4.7-5.4,10-6.8,16c-1.4,6-2.1,12.2-2.1,18.6
		c0,6.1,0.7,12.1,2.1,17.8c1.4,5.8,3.7,11,6.8,15.6c3.1,4.6,7.2,8.3,12.2,11.1c5,2.8,11.1,4.2,18.4,4.2c9.8,0,17.4-3,23-9.1
		c5.5-6,8.9-13.9,10.1-23.6h31c-0.8,9.1-2.9,17.3-6.3,24.7c-3.4,7.3-7.9,13.6-13.5,18.8c-5.6,5.2-12.1,9.1-19.6,11.9
		c-7.5,2.8-15.7,4.2-24.7,4.2c-11.3,0-21.4-2-30.2-5.9c-8.8-3.9-16.3-9.3-22.4-16.1c-6.1-6.8-10.8-14.8-14.1-24.1
		c-3.3-9.2-4.9-19.1-4.9-29.6c0-10.7,1.6-20.8,4.9-30.2c3.3-9.4,8-17.5,14.1-24.5s13.6-12.4,22.4-16.3c8.8-3.9,18.9-5.9,30.2-5.9
		c8,0,15.6,1.2,22.7,3.5c7.1,2.3,13.5,5.7,19.2,10.1c5.6,4.4,10.3,9.9,14,16.4c3.7,6.5,6,14,6.9,22.4H426.5z"/>
	<path fill="#669D74" d="M464.3,267.8c0-8.4,1.3-16.1,3.9-23c2.6-6.9,6.3-12.7,11-17.5c4.8-4.8,10.5-8.6,17.1-11.2
		c6.7-2.7,14.1-4,22.4-4c8.3,0,15.8,1.3,22.5,4c6.7,2.7,12.5,6.4,17.2,11.2c4.8,4.8,8.4,10.7,11,17.5c2.6,6.9,3.9,14.5,3.9,23
		c0,8.4-1.3,16-3.9,22.8c-2.6,6.8-6.3,12.6-11,17.4c-4.8,4.8-10.5,8.6-17.2,11.2c-6.7,2.7-14.2,4-22.5,4c-8.3,0-15.8-1.3-22.4-4
		c-6.7-2.7-12.4-6.4-17.1-11.2c-4.8-4.8-8.4-10.6-11-17.4C465.6,283.9,464.3,276.3,464.3,267.8z M493.3,267.8
		c0,4.2,0.4,8.3,1.2,12.3c0.8,4,2.2,7.6,4.2,10.8c2,3.2,4.6,5.7,7.9,7.6c3.3,1.9,7.3,2.9,12.2,2.9c4.9,0,9-1,12.3-2.9
		c3.3-1.9,6-4.5,8-7.6c2-3.2,3.4-6.8,4.2-10.8c0.8-4,1.2-8.1,1.2-12.3c0-4.2-0.4-8.4-1.2-12.4c-0.8-4.1-2.2-7.7-4.2-10.8
		c-2-3.1-4.6-5.7-8-7.6c-3.3-2-7.4-3-12.3-3c-4.9,0-9,1-12.2,3c-3.3,2-5.9,4.5-7.9,7.6c-2,3.1-3.4,6.7-4.2,10.8
		C493.7,259.5,493.3,263.6,493.3,267.8z"/>
	<path fill="#669D74" d="M583.9,215h27.3v14.3h0.4c3.8-5.4,8.4-9.7,13.8-12.6c5.4-3,11.5-4.5,18.5-4.5c6.7,0,12.8,1.3,18.3,4
		c5.5,2.7,9.7,7.2,12.5,13.6c3.1-4.6,7.4-8.7,12.8-12.2c5.4-3.5,11.7-5.3,19.1-5.3c5.6,0,10.7,0.7,15.5,2c4.8,1.4,8.8,3.5,12.2,6.5
		c3.4,3,6,6.9,8,11.7c1.9,4.8,2.9,10.6,2.9,17.4v70.6h-29v-59.8c0-3.5-0.1-6.9-0.4-10c-0.3-3.1-1-5.8-2.2-8.2
		c-1.2-2.3-3-4.1-5.4-5.5c-2.4-1.4-5.6-2-9.7-2s-7.4,0.8-9.9,2.3c-2.5,1.6-4.5,3.6-5.9,6.1c-1.4,2.5-2.4,5.4-2.9,8.6
		c-0.5,3.2-0.7,6.4-0.7,9.7v58.8h-29v-59.2c0-3-0.1-6-0.2-9.2c-0.1-3.1-0.7-6-1.7-8.6c-1-2.6-2.7-4.7-5.1-6.2
		c-2.4-1.6-5.9-2.3-10.5-2.3c-1.5,0-3.3,0.3-5.5,0.9c-2.2,0.6-4.3,1.8-6.4,3.5c-2.1,1.7-3.9,4.1-5.4,7.3c-1.5,3.2-2.2,7.4-2.2,12.5
		v61.2h-29V215z"/>
	<path fill="#669D74" d="M760.2,215h27.3v14.3h0.4c3.8-5.4,8.4-9.7,13.8-12.6c5.4-3,11.5-4.5,18.5-4.5c6.7,0,12.8,1.3,18.3,4
		c5.5,2.7,9.7,7.2,12.5,13.6c3.1-4.6,7.4-8.7,12.8-12.2c5.4-3.5,11.7-5.3,19.1-5.3c5.6,0,10.7,0.7,15.5,2c4.8,1.4,8.8,3.5,12.2,6.5
		c3.4,3,6,6.9,8,11.7c1.9,4.8,2.9,10.6,2.9,17.4v70.6h-29v-59.8c0-3.5-0.1-6.9-0.4-10c-0.3-3.1-1-5.8-2.2-8.2
		c-1.2-2.3-3-4.1-5.4-5.5c-2.4-1.4-5.6-2-9.7-2s-7.4,0.8-9.9,2.3c-2.5,1.6-4.5,3.6-5.9,6.1c-1.4,2.5-2.4,5.4-2.9,8.6
		c-0.5,3.2-0.7,6.4-0.7,9.7v58.8h-29v-59.2c0-3-0.1-6-0.2-9.2c-0.1-3.1-0.7-6-1.7-8.6c-1-2.6-2.7-4.7-5.1-6.2
		c-2.4-1.6-5.9-2.3-10.5-2.3c-1.5,0-3.3,0.3-5.5,0.9c-2.2,0.6-4.3,1.8-6.4,3.5c-2.1,1.7-3.9,4.1-5.4,7.3c-1.5,3.2-2.2,7.4-2.2,12.5
		v61.2h-29V215z"/>
	<path fill="#669D74" d="M959.6,274.8c0.4,9.3,2.8,16,7.1,20.3c4.4,4.3,10.6,6.4,18.8,6.4c5.8,0,10.9-1.5,15.1-4.4
		c4.2-2.9,6.8-6,7.8-9.3h25.5c-4.1,12.5-10.3,21.6-18.8,27.1c-8.4,5.6-18.6,8.4-30.6,8.4c-8.3,0-15.8-1.4-22.4-4.1
		c-6.7-2.7-12.3-6.5-16.9-11.4c-4.6-4.9-8.2-10.7-10.7-17.5c-2.5-6.8-3.8-14.3-3.8-22.4c0-7.9,1.3-15.2,3.9-22
		c2.6-6.8,6.3-12.7,11-17.6c4.8-5,10.4-8.9,17-11.7c6.6-2.9,13.9-4.3,21.9-4.3c9,0,16.8,1.7,23.5,5.2c6.7,3.5,12.1,8.1,16.4,14
		c4.3,5.8,7.4,12.5,9.3,20c1.9,7.5,2.6,15.3,2,23.5H959.6z M1006.8,256.4c-1.4-7.3-3.8-12.9-7.2-16.7c-3.5-3.8-8.7-5.7-15.8-5.7
		c-4.6,0-8.5,0.8-11.5,2.3c-3.1,1.6-5.5,3.5-7.3,5.8c-1.8,2.3-3.1,4.8-3.9,7.3c-0.7,2.6-1.2,4.9-1.3,6.9H1006.8z"/>
	<path fill="#669D74" d="M1044.7,215h27.5v19.6h0.4c1.4-3.3,3.2-6.3,5.5-9.1c2.3-2.8,5-5.2,8-7.1c3-2,6.2-3.5,9.7-4.6
		c3.5-1.1,7-1.6,10.5-1.6c2.2,0,4.3,0.3,6.3,1v26.9c-1.4-0.3-3-0.5-4.9-0.7c-1.9-0.2-3.7-0.3-5.5-0.3c-5.3,0-9.8,0.9-13.5,2.7
		c-3.7,1.8-6.6,4.2-8.9,7.2c-2.2,3.1-3.8,6.7-4.8,10.8c-1,4.1-1.4,8.5-1.4,13.2v47.5h-29V215z"/>
	<path fill="#669D74" d="M1187.3,252.1c-1.9-12.1-9-18.2-21.4-18.2c-4.6,0-8.5,1.1-11.6,3.2c-3.1,2.1-5.7,4.8-7.7,8.2
		c-2,3.3-3.4,7-4.2,11.1c-0.8,4.1-1.2,8-1.2,11.8c0,3.8,0.4,7.7,1.2,11.6c0.8,3.9,2.1,7.5,4,10.7c1.8,3.2,4.3,5.8,7.4,7.9
		c3.1,2,6.9,3.1,11.4,3.1c6.8,0,12.1-1.9,15.9-5.8c3.8-3.9,6.2-9.1,7.1-15.6h27.9c-1.9,14-7.3,24.7-16.3,32.1
		c-9,7.4-20.5,11.1-34.5,11.1c-8,0-15.3-1.3-21.8-4s-12.1-6.4-16.7-11.2c-4.6-4.8-8.2-10.5-10.8-17.1c-2.6-6.6-3.9-13.8-3.9-21.7
		c0-8.2,1.2-15.7,3.6-22.7c2.4-7,5.9-13.1,10.5-18.2c4.6-5.1,10.3-9.1,16.9-11.9c6.7-2.9,14.3-4.3,22.8-4.3c6.3,0,12.3,0.8,18.1,2.4
		c5.8,1.6,10.9,4.1,15.4,7.4c4.5,3.3,8.2,7.5,11.1,12.5c2.9,5,4.6,10.9,5,17.5H1187.3z"/>
	<path fill="#669D74" d="M1248.7,274.8c0.4,9.3,2.8,16,7.1,20.3c4.4,4.3,10.6,6.4,18.8,6.4c5.8,0,10.9-1.5,15.1-4.4
		c4.2-2.9,6.8-6,7.8-9.3h25.5c-4.1,12.5-10.3,21.6-18.8,27.1c-8.4,5.6-18.6,8.4-30.6,8.4c-8.3,0-15.8-1.4-22.4-4.1
		c-6.7-2.7-12.3-6.5-16.9-11.4c-4.6-4.9-8.2-10.7-10.7-17.5c-2.5-6.8-3.8-14.3-3.8-22.4c0-7.9,1.3-15.2,3.9-22
		c2.6-6.8,6.3-12.7,11-17.6c4.8-5,10.4-8.9,17-11.7c6.6-2.9,13.9-4.3,21.9-4.3c9,0,16.8,1.7,23.5,5.2c6.7,3.5,12.1,8.1,16.4,14
		c4.3,5.8,7.4,12.5,9.3,20c1.9,7.5,2.6,15.3,2,23.5H1248.7z M1295.8,256.4c-1.4-7.3-3.8-12.9-7.2-16.7c-3.5-3.8-8.7-5.7-15.8-5.7
		c-4.6,0-8.5,0.8-11.5,2.3c-3.1,1.6-5.5,3.5-7.3,5.8c-1.8,2.3-3.1,4.8-3.9,7.3c-0.7,2.6-1.2,4.9-1.3,6.9H1295.8z"/>
</g>
</svg>
